<mxfile host="app.diagrams.net" modified="2024-07-02T12:48:05.329Z" agent="Mozilla/5.0 (Windows NT 10.0; Win64; x64) AppleWebKit/537.36 (KHTML, like Gecko) Chrome/126.0.0.0 Safari/537.36" etag="NV8MEYbwHkWPyGZNpphL" version="24.6.2" type="device">
  <diagram name="Page-1" id="uBgz4r7YhPYDk9SLvPya">
    <mxGraphModel dx="1050" dy="522" grid="1" gridSize="10" guides="1" tooltips="1" connect="1" arrows="1" fold="1" page="1" pageScale="1" pageWidth="827" pageHeight="1169" math="0" shadow="0">
      <root>
        <mxCell id="0" />
        <mxCell id="1" parent="0" />
        <mxCell id="ixuf1eLaqBvkAu47KVwl-1" value="User 1" style="shape=umlActor;verticalLabelPosition=bottom;verticalAlign=top;html=1;outlineConnect=0;" vertex="1" parent="1">
          <mxGeometry x="200" y="70" width="30" height="60" as="geometry" />
        </mxCell>
        <mxCell id="ixuf1eLaqBvkAu47KVwl-2" value="User 2" style="shape=umlActor;verticalLabelPosition=bottom;verticalAlign=top;html=1;outlineConnect=0;" vertex="1" parent="1">
          <mxGeometry x="200" y="210" width="30" height="60" as="geometry" />
        </mxCell>
        <mxCell id="ixuf1eLaqBvkAu47KVwl-3" value="User 3&lt;div&gt;&lt;br&gt;&lt;/div&gt;" style="shape=umlActor;verticalLabelPosition=bottom;verticalAlign=top;html=1;outlineConnect=0;" vertex="1" parent="1">
          <mxGeometry x="200" y="330" width="30" height="60" as="geometry" />
        </mxCell>
        <mxCell id="ixuf1eLaqBvkAu47KVwl-4" value="" style="whiteSpace=wrap;html=1;shape=mxgraph.basic.document" vertex="1" parent="1">
          <mxGeometry x="380" y="60" width="100" height="100" as="geometry" />
        </mxCell>
        <mxCell id="ixuf1eLaqBvkAu47KVwl-7" value="" style="html=1;shadow=0;dashed=0;align=center;verticalAlign=middle;shape=mxgraph.arrows2.arrow;dy=0.67;dx=20;notch=0;" vertex="1" parent="1">
          <mxGeometry x="260" y="80" width="100" height="60" as="geometry" />
        </mxCell>
        <mxCell id="ixuf1eLaqBvkAu47KVwl-8" value="" style="whiteSpace=wrap;html=1;shape=mxgraph.basic.document" vertex="1" parent="1">
          <mxGeometry x="380" y="200" width="100" height="100" as="geometry" />
        </mxCell>
        <mxCell id="ixuf1eLaqBvkAu47KVwl-9" value="" style="html=1;shadow=0;dashed=0;align=center;verticalAlign=middle;shape=mxgraph.arrows2.arrow;dy=0.67;dx=20;notch=0;" vertex="1" parent="1">
          <mxGeometry x="260" y="220" width="100" height="60" as="geometry" />
        </mxCell>
        <mxCell id="ixuf1eLaqBvkAu47KVwl-10" value="" style="whiteSpace=wrap;html=1;shape=mxgraph.basic.document" vertex="1" parent="1">
          <mxGeometry x="380" y="330" width="100" height="100" as="geometry" />
        </mxCell>
        <mxCell id="ixuf1eLaqBvkAu47KVwl-11" value="" style="html=1;shadow=0;dashed=0;align=center;verticalAlign=middle;shape=mxgraph.arrows2.arrow;dy=0.67;dx=20;notch=0;" vertex="1" parent="1">
          <mxGeometry x="260" y="350" width="100" height="60" as="geometry" />
        </mxCell>
        <mxCell id="ixuf1eLaqBvkAu47KVwl-12" value="" style="whiteSpace=wrap;html=1;shape=mxgraph.basic.document" vertex="1" parent="1">
          <mxGeometry x="660" y="200" width="100" height="100" as="geometry" />
        </mxCell>
        <mxCell id="ixuf1eLaqBvkAu47KVwl-13" value="" style="html=1;shadow=0;dashed=0;align=center;verticalAlign=middle;shape=mxgraph.arrows2.arrow;dy=0.67;dx=20;notch=0;rotation=30;" vertex="1" parent="1">
          <mxGeometry x="540" y="90" width="100" height="60" as="geometry" />
        </mxCell>
        <mxCell id="ixuf1eLaqBvkAu47KVwl-15" value="" style="html=1;shadow=0;dashed=0;align=center;verticalAlign=middle;shape=mxgraph.arrows2.arrow;dy=0.67;dx=20;notch=0;" vertex="1" parent="1">
          <mxGeometry x="530" y="220" width="100" height="60" as="geometry" />
        </mxCell>
        <mxCell id="ixuf1eLaqBvkAu47KVwl-16" value="" style="html=1;shadow=0;dashed=0;align=center;verticalAlign=middle;shape=mxgraph.arrows2.arrow;dy=0.67;dx=20;notch=0;rotation=-30;" vertex="1" parent="1">
          <mxGeometry x="540" y="350" width="100" height="60" as="geometry" />
        </mxCell>
        <mxCell id="ixuf1eLaqBvkAu47KVwl-19" value="Master" style="swimlane;startSize=20;horizontal=0;html=1;whiteSpace=wrap;" vertex="1" parent="1">
          <mxGeometry x="100" y="530" width="580" height="120" as="geometry" />
        </mxCell>
        <mxCell id="ixuf1eLaqBvkAu47KVwl-21" value="" style="ellipse;whiteSpace=wrap;html=1;fillColor=#ffe6cc;strokeColor=#d79b00;" vertex="1" parent="ixuf1eLaqBvkAu47KVwl-19">
          <mxGeometry x="50" y="40" width="40" height="40" as="geometry" />
        </mxCell>
        <mxCell id="ixuf1eLaqBvkAu47KVwl-30" value="" style="ellipse;whiteSpace=wrap;html=1;fillColor=#ffe6cc;strokeColor=#d79b00;" vertex="1" parent="ixuf1eLaqBvkAu47KVwl-19">
          <mxGeometry x="200" y="40" width="40" height="40" as="geometry" />
        </mxCell>
        <mxCell id="ixuf1eLaqBvkAu47KVwl-31" value="" style="endArrow=none;html=1;rounded=0;exitX=1;exitY=0.5;exitDx=0;exitDy=0;entryX=0;entryY=0.5;entryDx=0;entryDy=0;" edge="1" parent="ixuf1eLaqBvkAu47KVwl-19" source="ixuf1eLaqBvkAu47KVwl-21" target="ixuf1eLaqBvkAu47KVwl-30">
          <mxGeometry width="50" height="50" relative="1" as="geometry">
            <mxPoint x="340" y="70" as="sourcePoint" />
            <mxPoint x="390" y="20" as="targetPoint" />
          </mxGeometry>
        </mxCell>
        <mxCell id="ixuf1eLaqBvkAu47KVwl-33" value="" style="ellipse;whiteSpace=wrap;html=1;fillColor=#ffe6cc;strokeColor=#d79b00;" vertex="1" parent="ixuf1eLaqBvkAu47KVwl-19">
          <mxGeometry x="370" y="40" width="40" height="40" as="geometry" />
        </mxCell>
        <mxCell id="ixuf1eLaqBvkAu47KVwl-34" value="" style="endArrow=none;html=1;rounded=0;exitX=1;exitY=0.5;exitDx=0;exitDy=0;entryX=0;entryY=0.5;entryDx=0;entryDy=0;" edge="1" parent="ixuf1eLaqBvkAu47KVwl-19" source="ixuf1eLaqBvkAu47KVwl-30" target="ixuf1eLaqBvkAu47KVwl-33">
          <mxGeometry width="50" height="50" relative="1" as="geometry">
            <mxPoint x="400" y="240" as="sourcePoint" />
            <mxPoint x="450" y="190" as="targetPoint" />
          </mxGeometry>
        </mxCell>
        <mxCell id="ixuf1eLaqBvkAu47KVwl-22" value="Feature 1" style="swimlane;startSize=20;horizontal=0;html=1;whiteSpace=wrap;" vertex="1" parent="1">
          <mxGeometry x="100" y="680" width="580" height="120" as="geometry" />
        </mxCell>
        <mxCell id="ixuf1eLaqBvkAu47KVwl-23" value="" style="ellipse;whiteSpace=wrap;html=1;fillColor=#d5e8d4;strokeColor=#82b366;" vertex="1" parent="ixuf1eLaqBvkAu47KVwl-22">
          <mxGeometry x="130" y="40" width="40" height="40" as="geometry" />
        </mxCell>
        <mxCell id="ixuf1eLaqBvkAu47KVwl-24" value="" style="endArrow=classic;html=1;rounded=0;exitX=0.72;exitY=1.04;exitDx=0;exitDy=0;exitPerimeter=0;entryX=0;entryY=0;entryDx=0;entryDy=0;" edge="1" parent="1" source="ixuf1eLaqBvkAu47KVwl-21" target="ixuf1eLaqBvkAu47KVwl-23">
          <mxGeometry width="50" height="50" relative="1" as="geometry">
            <mxPoint x="230" y="890" as="sourcePoint" />
            <mxPoint x="280" y="840" as="targetPoint" />
          </mxGeometry>
        </mxCell>
        <mxCell id="ixuf1eLaqBvkAu47KVwl-25" value="Feature 2" style="swimlane;startSize=20;horizontal=0;html=1;whiteSpace=wrap;" vertex="1" parent="1">
          <mxGeometry x="100" y="830" width="580" height="120" as="geometry" />
        </mxCell>
        <mxCell id="ixuf1eLaqBvkAu47KVwl-26" value="" style="ellipse;whiteSpace=wrap;html=1;fillColor=#e1d5e7;strokeColor=#9673a6;" vertex="1" parent="ixuf1eLaqBvkAu47KVwl-25">
          <mxGeometry x="240" y="40" width="40" height="40" as="geometry" />
        </mxCell>
        <mxCell id="ixuf1eLaqBvkAu47KVwl-37" value="" style="ellipse;whiteSpace=wrap;html=1;fillColor=#e1d5e7;strokeColor=#9673a6;" vertex="1" parent="ixuf1eLaqBvkAu47KVwl-25">
          <mxGeometry x="330" y="40" width="40" height="40" as="geometry" />
        </mxCell>
        <mxCell id="ixuf1eLaqBvkAu47KVwl-38" value="" style="endArrow=none;html=1;rounded=0;exitX=1;exitY=0.5;exitDx=0;exitDy=0;entryX=0;entryY=0.5;entryDx=0;entryDy=0;" edge="1" parent="ixuf1eLaqBvkAu47KVwl-25" source="ixuf1eLaqBvkAu47KVwl-26" target="ixuf1eLaqBvkAu47KVwl-37">
          <mxGeometry width="50" height="50" relative="1" as="geometry">
            <mxPoint x="290" y="-10" as="sourcePoint" />
            <mxPoint x="340" y="-60" as="targetPoint" />
          </mxGeometry>
        </mxCell>
        <mxCell id="ixuf1eLaqBvkAu47KVwl-27" value="" style="endArrow=classic;html=1;rounded=0;entryX=0;entryY=0;entryDx=0;entryDy=0;exitX=1;exitY=1;exitDx=0;exitDy=0;" edge="1" parent="1" source="ixuf1eLaqBvkAu47KVwl-30" target="ixuf1eLaqBvkAu47KVwl-26">
          <mxGeometry width="50" height="50" relative="1" as="geometry">
            <mxPoint x="330" y="630" as="sourcePoint" />
            <mxPoint x="300" y="970" as="targetPoint" />
          </mxGeometry>
        </mxCell>
        <mxCell id="ixuf1eLaqBvkAu47KVwl-28" value="User 1" style="shape=umlActor;verticalLabelPosition=bottom;verticalAlign=top;html=1;outlineConnect=0;" vertex="1" parent="1">
          <mxGeometry x="30" y="700" width="30" height="60" as="geometry" />
        </mxCell>
        <mxCell id="ixuf1eLaqBvkAu47KVwl-29" value="User 2&lt;div&gt;&lt;br&gt;&lt;/div&gt;" style="shape=umlActor;verticalLabelPosition=bottom;verticalAlign=top;html=1;outlineConnect=0;" vertex="1" parent="1">
          <mxGeometry x="30" y="840" width="30" height="60" as="geometry" />
        </mxCell>
        <mxCell id="ixuf1eLaqBvkAu47KVwl-32" value="" style="endArrow=classic;html=1;rounded=0;exitX=1;exitY=0;exitDx=0;exitDy=0;entryX=0.35;entryY=0.98;entryDx=0;entryDy=0;entryPerimeter=0;" edge="1" parent="1" source="ixuf1eLaqBvkAu47KVwl-23" target="ixuf1eLaqBvkAu47KVwl-30">
          <mxGeometry width="50" height="50" relative="1" as="geometry">
            <mxPoint x="340" y="770" as="sourcePoint" />
            <mxPoint x="390" y="720" as="targetPoint" />
          </mxGeometry>
        </mxCell>
        <mxCell id="ixuf1eLaqBvkAu47KVwl-35" value="" style="endArrow=classic;html=1;rounded=0;entryX=0.5;entryY=1;entryDx=0;entryDy=0;exitX=1;exitY=0;exitDx=0;exitDy=0;" edge="1" parent="1" source="ixuf1eLaqBvkAu47KVwl-37" target="ixuf1eLaqBvkAu47KVwl-33">
          <mxGeometry width="50" height="50" relative="1" as="geometry">
            <mxPoint x="400" y="890" as="sourcePoint" />
            <mxPoint x="390" y="850" as="targetPoint" />
          </mxGeometry>
        </mxCell>
        <mxCell id="ixuf1eLaqBvkAu47KVwl-36" value="" style="ellipse;whiteSpace=wrap;html=1;" vertex="1" parent="1">
          <mxGeometry x="80" y="990" width="120" height="80" as="geometry" />
        </mxCell>
      </root>
    </mxGraphModel>
  </diagram>
</mxfile>
